<svg width="240" height="60" viewBox="0 0 240 60" fill="none" xmlns="http://www.w3.org/2000/svg">
<path d="M92.1782 26.1631L101.453 10.1099L104.401 5.00655L104.48 4.86899L105.8 2.58369C106.087 2.11699 106.231 1.68686 106.231 1.29122C106.231 0.43013 105.729 0 104.723 0H104.48H91.7996H45.2359C44.5178 0 43.7628 0.251013 42.9728 0.75387C42.1828 1.2559 41.5721 1.86597 41.1402 2.58369L27.7239 25.8369C27.4364 26.3032 27.2925 26.7345 27.2925 27.1289C27.2925 27.99 27.7959 28.4214 28.8018 28.4214H33.132H41.7335C42.4515 28.4214 43.2062 28.1691 43.9966 27.6675C44.7866 27.1643 45.3973 26.5554 45.8291 25.8369L57.737 5.16696C58.1676 4.44966 58.7783 3.83917 59.5683 3.33756C60.3596 2.83429 61.1134 2.58369 61.8314 2.58369C62.8373 2.58369 63.3407 3.01465 63.3407 3.87574C63.3407 4.27055 63.1967 4.70026 62.901 5.16696L50.9931 25.8286C50.7135 26.3032 50.5708 26.7345 50.5708 27.1289C50.5708 27.99 51.0729 28.4214 52.0788 28.4214H65.0106C65.7382 28.4214 66.4928 28.1691 67.2828 27.6675C68.0732 27.1643 68.6839 26.5554 69.1153 25.8369L81.0765 5.16696C81.4717 4.44966 82.0554 3.83917 82.8466 3.33756C83.6366 2.83429 84.3904 2.58369 85.1097 2.58369C86.1156 2.58369 86.6178 3.01465 86.6178 3.87574C86.6178 4.18203 86.5425 4.50951 86.3902 4.85943C86.3465 4.96083 86.297 5.06348 86.2404 5.16696L76.651 21.7409C71.4388 30.7478 72.5599 28.8303 76.651 21.7409L74.2864 25.8369C74.0001 26.3032 73.8562 26.7345 73.8562 27.1289C73.8562 27.99 74.3583 28.4214 75.3642 28.4214H88.2972C89.0152 28.4214 89.7699 28.1691 90.5603 27.6675C91.2276 27.2432 91.7663 26.7416 92.1782 26.1631ZM112.967 0C112.284 0 111.539 0.251013 110.731 0.75387C109.922 1.2559 109.321 1.86597 108.926 2.58369L95.4551 25.8369C95.2038 26.3032 95.0778 26.7345 95.0778 27.1289C95.0778 27.99 95.5803 28.4214 96.5862 28.4214H106.356H132.796C133.479 28.4214 134.224 28.1691 135.032 27.6675C135.841 27.1643 136.442 26.5554 136.837 25.8369L150.308 2.58369C150.559 2.11699 150.685 1.68686 150.685 1.29122C150.685 0.43013 150.181 0 149.177 0H112.967ZM120.241 23.2532C119.845 23.9709 119.244 24.581 118.436 25.0838C117.627 25.5859 116.864 25.8369 116.146 25.8369C115.176 25.8369 114.691 25.4068 114.691 24.5457C114.691 24.1509 114.817 23.7199 115.078 23.2532L125.531 5.16696C125.926 4.44966 126.527 3.83917 127.327 3.33756C128.134 2.83429 128.899 2.58369 129.617 2.58369C130.587 2.58369 131.072 3.01465 131.072 3.87574C131.072 4.27055 130.946 4.70026 130.695 5.16696L120.241 23.2532ZM157.421 0C156.738 0 155.993 0.251013 155.184 0.75387C154.376 1.2559 153.775 1.86597 153.38 2.58369L139.908 25.8369C139.657 26.3032 139.531 26.7345 139.531 27.1289C139.531 27.99 140.034 28.4214 141.04 28.4214H177.249C177.931 28.4214 178.677 28.1691 179.486 27.6675C180.294 27.1643 180.895 26.5554 181.29 25.8369L194.762 2.58369C195.013 2.11699 195.139 1.68686 195.139 1.29122C195.139 0.43013 194.635 0 193.63 0H157.421ZM164.694 23.2532C164.3 23.9709 163.698 24.581 162.889 25.0838C162.081 25.5859 161.318 25.8369 160.599 25.8369C159.63 25.8369 159.145 25.4068 159.145 24.5457C159.145 24.1509 159.27 23.7199 159.53 23.2532L169.985 5.16696C170.38 4.44966 170.981 3.83917 171.781 3.33756C172.588 2.83429 173.351 2.58369 174.071 2.58369C175.04 2.58369 175.525 3.01465 175.525 3.87574C175.525 4.27055 175.4 4.70026 175.147 5.16696L164.694 23.2532ZM201.55 0C200.868 0 200.123 0.251013 199.315 0.75387C198.506 1.2559 197.905 1.86597 197.509 2.58369L184.039 25.8369C183.788 26.3032 183.662 26.7345 183.662 27.1289C183.662 27.99 184.164 28.4214 185.17 28.4214H198.103C198.784 28.4214 199.529 28.1691 200.346 27.6675C201.156 27.1643 201.757 26.5554 202.152 25.8369L214.114 5.16696C214.509 4.44966 215.102 3.83917 215.91 3.33756C216.718 2.83429 217.482 2.58369 218.2 2.58369C219.171 2.58369 219.656 3.01465 219.656 3.87574C219.656 4.27055 219.529 4.70026 219.278 5.16696L207.316 25.8369C207.065 26.3032 206.939 26.7345 206.939 27.1289C206.939 27.99 207.442 28.4214 208.448 28.4214H221.38C222.062 28.4214 222.808 28.1691 223.615 27.6675C224.424 27.1643 225.026 26.5554 225.421 25.8369L238.891 2.58369C239.142 2.11699 239.269 1.68686 239.269 1.29122C239.269 0.43013 238.765 0 237.76 0H201.55Z" fill="#A7F2A2"/>
<path d="M73.3733 31.4229C72.6552 31.4229 71.9006 31.6747 71.1106 32.1767C70.3202 32.6796 69.7095 33.2897 69.2793 34.0074L55.8617 57.2606C55.6104 57.7269 55.4844 58.1582 55.4844 58.5526C55.4844 59.4141 55.9703 59.8438 56.9396 59.8438H69.8451C70.5631 59.8438 71.3182 59.5928 72.1257 59.0817C72.9336 58.5788 73.5364 57.9604 73.9311 57.2427L85.9289 36.5906C86.3237 35.8733 86.9253 35.2633 87.7344 34.76C88.5419 34.2584 89.2874 34.0074 89.97 34.0074C90.976 34.0074 91.4785 34.4371 91.4785 35.2986C91.4785 35.693 91.3533 36.1244 91.1012 36.5906L89.5927 39.1743C89.3415 39.6406 89.2154 40.072 89.2154 40.4664C89.2154 41.3275 89.7001 41.7576 90.6706 41.7576H103.602C104.32 41.7576 105.085 41.5066 105.892 41.005C106.7 40.5017 107.303 39.8916 107.698 39.1743L110.661 34.0074C110.949 33.5407 111.092 33.1097 111.092 32.7149C111.092 31.8538 110.589 31.4229 109.583 31.4229H73.3733ZM115.294 59.8438C115.977 59.8438 116.722 59.5928 117.532 59.0912C118.339 58.5879 118.941 57.9779 119.336 57.2606L132.808 34.0074C133.058 33.5407 133.184 33.1097 133.184 32.7149C133.184 31.8538 132.681 31.4229 131.675 31.4229H118.744C118.061 31.4229 117.316 31.6747 116.508 32.1767C115.699 32.6796 115.098 33.2897 114.702 34.0074L101.232 57.2606C100.979 57.7269 100.855 58.1582 100.855 58.5526C100.855 59.4141 101.357 59.8438 102.363 59.8438H115.294ZM169.609 41.7576C170.327 41.7576 171.09 41.5066 171.899 41.005C172.707 40.5017 173.308 39.8916 173.704 39.1743L176.668 34.0074C176.955 33.5407 177.099 33.1097 177.099 32.7149C177.099 31.8538 176.596 31.4229 175.59 31.4229H139.381C138.662 31.4229 137.907 31.6747 137.117 32.1767C136.327 32.6796 135.717 33.2897 135.285 34.0074L129.358 44.3421C129.071 44.8088 128.928 45.2385 128.928 45.6333C128.928 46.4944 129.43 46.9254 130.436 46.9254H148.541C149.547 46.9254 150.049 47.3568 150.049 48.2083C150.049 48.6031 149.897 49.0345 149.592 49.4912L146.628 54.6582C146.196 55.385 145.586 55.9951 144.805 56.4984C144.015 57.0096 143.27 57.2606 142.55 57.2606C141.554 57.2606 141.052 56.8292 141.052 55.9681C141.052 55.5737 141.194 55.1436 141.482 54.6769L142.937 52.0924C143.225 51.6261 143.368 51.1959 143.368 50.8011C143.368 49.94 142.865 49.5091 141.859 49.5091H128.928C128.208 49.5091 127.455 49.7601 126.665 50.263C125.873 50.765 125.264 51.3751 124.832 52.0924L121.869 57.2606C121.618 57.7269 121.491 58.1582 121.491 58.5526C121.491 59.4141 121.976 59.8438 122.946 59.8438H159.155C159.875 59.8438 160.637 59.5928 161.445 59.0912C162.254 58.5879 162.856 57.9779 163.251 57.2606L169.232 46.9254C169.483 46.4591 169.609 46.0277 169.609 45.6333C169.609 44.7723 169.125 44.3421 168.154 44.3421H150.049C149.043 44.3421 148.541 43.9112 148.541 43.0501C148.541 42.6553 148.667 42.2239 148.918 41.7576L151.936 36.5906C152.331 35.8733 152.933 35.2633 153.74 34.76C154.549 34.2584 155.294 34.0074 155.977 34.0074C156.982 34.0074 157.485 34.4371 157.485 35.2986C157.485 35.693 157.359 36.1244 157.108 36.5906L155.6 39.1743C155.347 39.6406 155.222 40.072 155.222 40.4664C155.222 41.3275 155.707 41.7576 156.677 41.7576H169.609ZM192.419 46.9254H210.542C211.26 46.9254 212.024 46.6748 212.814 46.1715C213.604 45.6699 214.215 45.0594 214.646 44.3421L220.636 34.0074C220.888 33.5407 221.014 33.1097 221.014 32.7149C221.014 31.8538 220.51 31.4229 219.504 31.4229H183.296C182.577 31.4229 181.823 31.6747 181.032 32.1767C180.242 32.6796 179.649 33.2897 179.254 34.0074L165.784 57.2606C165.531 57.7269 165.406 58.1582 165.406 58.5526C165.406 59.4141 165.891 59.8438 166.861 59.8438H203.07C203.789 59.8438 204.552 59.5928 205.36 59.0912C206.168 58.5879 206.771 57.9779 207.166 57.2606L210.184 52.0924C210.435 51.6261 210.56 51.1959 210.56 50.8011C210.56 49.94 210.058 49.5091 209.052 49.5091H196.12C195.401 49.5091 194.647 49.7601 193.857 50.263C193.066 50.765 192.474 51.3751 192.078 52.0924L190.569 54.6769C190.139 55.3946 189.528 56.0047 188.738 56.5067C187.948 57.0096 187.193 57.2606 186.475 57.2606C185.469 57.2606 184.965 56.8213 184.965 55.9506C184.965 55.5558 185.091 55.1166 185.343 54.6499L188.316 49.5008C188.746 48.7822 189.357 48.173 190.147 47.6797C190.938 47.1764 191.692 46.9254 192.419 46.9254ZM195.832 36.5811C196.227 35.8638 196.828 35.2537 197.646 34.76C198.455 34.2584 199.218 34.0074 199.945 34.0074C200.914 34.0074 201.4 34.4371 201.4 35.2986C201.4 35.693 201.274 36.1244 201.023 36.5906L198.005 41.7576C197.61 42.4762 197.009 43.0862 196.2 43.5883C195.392 44.0903 194.647 44.3421 193.964 44.3421C192.958 44.3421 192.456 43.9112 192.456 43.0405C192.456 42.6457 192.573 42.216 192.814 41.7493L195.832 36.5811Z" fill="#A7F2A2"/>
<path fill-rule="evenodd" clip-rule="evenodd" d="M58.3464 43.4236C56.6561 46.6032 54.3793 49.5389 51.523 52.0657C38.7119 63.3974 19.1302 62.2097 7.78727 49.4117C-3.55694 36.6146 -2.36715 17.0523 10.4439 5.72052C13.3003 3.19377 16.4936 1.29122 19.857 0C13.9642 11.077 15.2093 25.105 24.0229 35.0491C32.8378 44.9941 46.6269 47.926 58.3464 43.4236Z" fill="#13AD91"/>
</svg>
