<?xml version="1.0" encoding="UTF-8"?>
<!DOCTYPE svg PUBLIC "-//W3C//DTD SVG 1.1//EN" "http://www.w3.org/Graphics/SVG/1.1/DTD/svg11.dtd">
<!-- Creator: CorelDRAW (Версия для OEM) -->
<svg xmlns="http://www.w3.org/2000/svg" xml:space="preserve" width="24px" height="24px" version="1.1" style="shape-rendering:geometricPrecision; text-rendering:geometricPrecision; image-rendering:optimizeQuality; fill-rule:evenodd; clip-rule:evenodd"
viewBox="0 0 0.66 0.66"
 xmlns:xlink="http://www.w3.org/1999/xlink"
 xmlns:xodm="http://www.corel.com/coreldraw/odm/2003">
 <defs>
  <style type="text/css">
   <![CDATA[
    .fil0 {fill:#A7F2A2;fill-rule:nonzero}
   ]]>
  </style>
 </defs>
 <g id="Слой_x0020_1">
  <metadata id="CorelCorpID_0Corel-Layer"/>
  <path class="fil0" d="M0.13 0.02c0,-0.01 0.01,-0.02 0.03,-0.02 0.01,0 0.02,0.01 0.02,0.02l0 0.07 0.3 0 0 -0.07c0,-0.01 0.01,-0.02 0.02,-0.02 0.01,0 0.02,0.01 0.02,0.02l0 0.07 0.07 0c0.01,0 0.03,0.01 0.05,0.02 0.01,0.02 0.02,0.03 0.02,0.05l0 0.43c0,0.01 -0.01,0.03 -0.02,0.05 -0.02,0.01 -0.04,0.02 -0.05,0.02l-0.52 0c-0.02,0 -0.04,-0.01 -0.05,-0.02 -0.01,-0.02 -0.02,-0.04 -0.02,-0.05l0 -0.43c0,-0.02 0.01,-0.03 0.02,-0.05 0.01,-0.01 0.03,-0.02 0.05,-0.02l0.06 0 0 -0.07zm0.03 0.42c0.02,0 0.04,0.02 0.04,0.05 0,0.02 -0.02,0.04 -0.04,0.04 -0.03,0 -0.05,-0.02 -0.05,-0.04 0,-0.03 0.02,-0.05 0.05,-0.05zm0.17 -0.14c0.02,0 0.04,0.02 0.04,0.05 0,0.02 -0.02,0.05 -0.04,0.05 -0.03,0 -0.05,-0.03 -0.05,-0.05 0,-0.03 0.02,-0.05 0.05,-0.05zm0.17 0c0.02,0 0.05,0.02 0.05,0.05 0,0.02 -0.03,0.05 -0.05,0.05 -0.03,0 -0.05,-0.03 -0.05,-0.05 0,-0.03 0.02,-0.05 0.05,-0.05zm-0.34 0c0.02,0 0.04,0.02 0.04,0.05 0,0.02 -0.02,0.05 -0.04,0.05 -0.03,0 -0.05,-0.03 -0.05,-0.05 0,-0.03 0.02,-0.05 0.05,-0.05zm0.02 -0.16l0 0.07c0,0.01 -0.01,0.02 -0.02,0.02 -0.02,0 -0.03,-0.01 -0.03,-0.02l0 -0.07 -0.06 0c-0.01,0 -0.01,0 -0.02,0 0,0.01 -0.01,0.02 -0.01,0.02l0 0.43c0,0 0.01,0.01 0.01,0.01 0.01,0.01 0.01,0.01 0.02,0.01l0.52 0c0,0 0.01,0 0.01,-0.01 0.01,0 0.01,-0.01 0.01,-0.01l0 -0.43c0,0 0,-0.01 -0.01,-0.02 0,0 -0.01,0 -0.01,0l-0.07 0 0 0.07c0,0.01 -0.01,0.02 -0.02,0.02 -0.01,0 -0.02,-0.01 -0.02,-0.02l0 -0.07 -0.3 0z"/>
 </g>
</svg>
