<?xml version="1.0" encoding="UTF-8"?>
<!DOCTYPE svg PUBLIC "-//W3C//DTD SVG 1.1//EN" "http://www.w3.org/Graphics/SVG/1.1/DTD/svg11.dtd">
<!-- Creator: CorelDRAW (Версия для OEM) -->
<svg xmlns="http://www.w3.org/2000/svg" xml:space="preserve" width="24px" height="24px" version="1.1" style="shape-rendering:geometricPrecision; text-rendering:geometricPrecision; image-rendering:optimizeQuality; fill-rule:evenodd; clip-rule:evenodd"
viewBox="0 0 0.57 0.57"
 xmlns:xlink="http://www.w3.org/1999/xlink"
 xmlns:xodm="http://www.corel.com/coreldraw/odm/2003">
 <defs>
  <style type="text/css">
   <![CDATA[
    .fil0 {fill:#A7F2A2;fill-rule:nonzero}
   ]]>
  </style>
 </defs>
 <g id="Слой_x0020_1">
  <metadata id="CorelCorpID_0Corel-Layer"/>
  <path class="fil0" d="M0.12 0.02c0,-0.01 0,-0.02 0.02,-0.02 0.01,0 0.01,0.01 0.01,0.02l0 0.06 0.26 0 0 -0.06c0,-0.01 0.01,-0.02 0.02,-0.02 0.01,0 0.02,0.01 0.02,0.02l0 0.06 0.06 0c0.01,0 0.03,0.01 0.04,0.02 0.01,0.01 0.02,0.02 0.02,0.04l0 0.37c0,0.01 -0.01,0.03 -0.02,0.04 -0.01,0.01 -0.03,0.02 -0.04,0.02l-0.45 0c-0.02,0 -0.03,-0.01 -0.04,-0.02 -0.01,-0.01 -0.02,-0.03 -0.02,-0.04l0 -0.37c0,-0.02 0.01,-0.03 0.02,-0.04 0.01,-0.01 0.02,-0.02 0.04,-0.02l0.06 0 0 -0.06zm0.02 0.36c0.02,0 0.04,0.02 0.04,0.04 0,0.02 -0.02,0.04 -0.04,0.04 -0.03,0 -0.04,-0.02 -0.04,-0.04 0,-0.02 0.01,-0.04 0.04,-0.04zm0.14 -0.12c0.03,0 0.04,0.02 0.04,0.04 0,0.02 -0.01,0.04 -0.04,0.04 -0.02,0 -0.04,-0.02 -0.04,-0.04 0,-0.02 0.02,-0.04 0.04,-0.04zm0.15 0c0.02,0 0.04,0.02 0.04,0.04 0,0.02 -0.02,0.04 -0.04,0.04 -0.02,0 -0.04,-0.02 -0.04,-0.04 0,-0.02 0.02,-0.04 0.04,-0.04zm-0.29 0c0.02,0 0.04,0.02 0.04,0.04 0,0.02 -0.02,0.04 -0.04,0.04 -0.03,0 -0.04,-0.02 -0.04,-0.04 0,-0.02 0.01,-0.04 0.04,-0.04zm0.01 -0.14l0 0.06c0,0.01 0,0.02 -0.01,0.02 -0.02,0 -0.02,-0.01 -0.02,-0.02l0 -0.06 -0.06 0c-0.01,0 -0.01,0 -0.02,0 0,0.01 0,0.01 0,0.02l0 0.37c0,0 0,0.01 0,0.01 0.01,0.01 0.01,0.01 0.02,0.01l0.45 0c0,0 0.01,0 0.01,-0.01 0.01,0 0.01,-0.01 0.01,-0.01l0 -0.37c0,-0.01 0,-0.01 -0.01,-0.02 0,0 -0.01,0 -0.01,0l-0.06 0 0 0.06c0,0.01 -0.01,0.02 -0.02,0.02 -0.01,0 -0.02,-0.01 -0.02,-0.02l0 -0.06 -0.26 0z"/>
 </g>
</svg>
