<?xml version="1.0" encoding="UTF-8"?>
<!DOCTYPE svg PUBLIC "-//W3C//DTD SVG 1.1//EN" "http://www.w3.org/Graphics/SVG/1.1/DTD/svg11.dtd">
<!-- Creator: CorelDRAW (Версия для OEM) -->
<svg xmlns="http://www.w3.org/2000/svg" xml:space="preserve" width="24px" height="24px" version="1.1" style="shape-rendering:geometricPrecision; text-rendering:geometricPrecision; image-rendering:optimizeQuality; fill-rule:evenodd; clip-rule:evenodd"
viewBox="0 0 0.5 0.5"
 xmlns:xlink="http://www.w3.org/1999/xlink"
 xmlns:xodm="http://www.corel.com/coreldraw/odm/2003">
 <defs>
  <style type="text/css">
   <![CDATA[
    .fil0 {fill:#A7F2A2}
   ]]>
  </style>
 </defs>
 <g id="Слой_x0020_1">
  <metadata id="CorelCorpID_0Corel-Layer"/>
  <path class="fil0" d="M0.2 0l0.1 0c0.02,0 0.04,0.02 0.04,0.04l0 0.12 0.12 0c0.02,0 0.04,0.02 0.04,0.04l0 0.1c0,0.02 -0.02,0.04 -0.04,0.04l-0.12 0 0 0.12c0,0.02 -0.02,0.04 -0.04,0.04l-0.1 0c-0.02,0 -0.04,-0.02 -0.04,-0.04l0 -0.12 -0.12 0c-0.02,0 -0.04,-0.02 -0.04,-0.04l0 -0.1c0,-0.02 0.02,-0.04 0.04,-0.04l0.12 0 0 -0.12c0,-0.02 0.02,-0.04 0.04,-0.04z"/>
 </g>
</svg>
