<?xml version="1.0" encoding="UTF-8"?>
<!DOCTYPE svg PUBLIC "-//W3C//DTD SVG 1.1//EN" "http://www.w3.org/Graphics/SVG/1.1/DTD/svg11.dtd">
<!-- Creator: CorelDRAW (Версия для OEM) -->
<svg xmlns="http://www.w3.org/2000/svg" xml:space="preserve" width="21px" height="24px" version="1.1" style="shape-rendering:geometricPrecision; text-rendering:geometricPrecision; image-rendering:optimizeQuality; fill-rule:evenodd; clip-rule:evenodd"
viewBox="0 0 0.35 0.39"
 xmlns:xlink="http://www.w3.org/1999/xlink"
 xmlns:xodm="http://www.corel.com/coreldraw/odm/2003">
 <defs>
  <style type="text/css">
   <![CDATA[
    .fil0 {fill:#A7F2A2}
   ]]>
  </style>
 </defs>
 <g id="Слой_x0020_1">
  <metadata id="CorelCorpID_0Corel-Layer"/>
  <g id="_2254128491808">
   <path class="fil0" d="M0.04 0.31l0.04 0 0 -0.25c0.01,-0.02 -0.02,-0.05 -0.04,-0.06 -0.02,0.01 -0.04,0.04 -0.04,0.06l0 0.25 0.04 0z"/>
   <rect class="fil0" y="0.34" width="0.08" height="0.05"/>
   <path class="fil0" d="M0.17 0.31l0.05 0 0 -0.25c0,-0.02 -0.03,-0.05 -0.05,-0.06 -0.01,0.01 -0.04,0.04 -0.04,0.06l0 0.25 0.04 0z"/>
   <rect class="fil0" x="0.13" y="0.34" width="0.08" height="0.05"/>
   <path class="fil0" d="M0.31 0.31l0.04 0 0 -0.25c0,-0.02 -0.02,-0.05 -0.04,-0.06 -0.02,0.01 -0.05,0.04 -0.05,0.06l0 0.25 0.05 0z"/>
   <rect class="fil0" x="0.26" y="0.34" width="0.08" height="0.05"/>
  </g>
 </g>
</svg>
