<?xml version="1.0" encoding="UTF-8"?>
<!DOCTYPE svg PUBLIC "-//W3C//DTD SVG 1.1//EN" "http://www.w3.org/Graphics/SVG/1.1/DTD/svg11.dtd">
<!-- Creator: CorelDRAW (Версия для OEM) -->
<svg xmlns="http://www.w3.org/2000/svg" xml:space="preserve" width="24px" height="24px" version="1.1" style="shape-rendering:geometricPrecision; text-rendering:geometricPrecision; image-rendering:optimizeQuality; fill-rule:evenodd; clip-rule:evenodd"
viewBox="0 0 0.4 0.4"
 xmlns:xlink="http://www.w3.org/1999/xlink"
 xmlns:xodm="http://www.corel.com/coreldraw/odm/2003">
 <defs>
  <style type="text/css">
   <![CDATA[
    .fil0 {fill:#A7F2A2}
   ]]>
  </style>
 </defs>
 <g id="Слой_x0020_1">
  <metadata id="CorelCorpID_0Corel-Layer"/>
  <g id="_2217684500960">
   <path class="fil0" d="M0.21 0.31c0,-0.01 0,-0.03 0.01,-0.05 0,-0.02 0.02,-0.04 0.04,-0.05 0.01,-0.01 0.01,-0.01 0.02,-0.01l-0.01 -0.01c0,0 0,-0.01 -0.01,-0.01 -0.01,0.01 -0.02,0.01 -0.04,0.02 -0.02,0 -0.04,0 -0.07,-0.01l0 0c0,-0.01 -0.01,-0.01 -0.01,-0.01l0 0c-0.01,0.01 -0.01,0.01 -0.01,0.02 0.01,0.01 0.03,0.01 0.04,0.03 0.01,0.01 0.02,0.04 0.02,0.06 0,0.01 0,0.02 0,0.02l0.01 0c0,0 0.01,0 0.01,0zm0.14 -0.11c0.02,0.01 0.03,0.03 0.04,0.04l0 0c0.01,0.03 0.02,0.06 0.01,0.08 -0.01,0.02 -0.02,0.05 -0.04,0.06 -0.02,0.01 -0.03,0.01 -0.05,0.01 -0.01,0 -0.02,0 -0.04,0 -0.01,0 -0.03,0.01 -0.05,0.01 -0.02,0.01 -0.04,0 -0.06,0l-0.02 -0.01 0.01 -0.01c-0.02,0.01 -0.04,0.02 -0.05,0.02 -0.03,0 -0.05,-0.02 -0.07,-0.03 -0.02,-0.02 -0.03,-0.05 -0.03,-0.08 0,-0.01 0,-0.03 0.01,-0.04 0.01,-0.02 0.02,-0.03 0.03,-0.03 0,-0.02 0,-0.04 0.01,-0.06 0.01,-0.02 0.02,-0.04 0.03,-0.05l0.02 -0.01 0.01 0c-0.01,-0.01 0,-0.03 0.01,-0.05l0 0c0.01,-0.02 0.03,-0.04 0.06,-0.05 0.02,0 0.05,0 0.07,0.01l0 0c0.01,0.01 0.03,0.02 0.03,0.04 0.01,0.01 0.01,0.02 0.02,0.04 0.01,0.01 0.02,0.02 0.03,0.03 0.02,0.02 0.03,0.04 0.03,0.06l0 0.02 -0.01 0zm-0.09 -0.06c-0.02,0.04 -0.06,0.05 -0.1,0.03 -0.03,-0.02 -0.04,-0.07 -0.02,-0.11 0.02,-0.04 0.06,-0.05 0.1,-0.03 0.02,0.02 0.04,0.04 0.04,0.07 0.02,0.01 0.05,0.05 0.06,0.08l-0.05 0c-0.01,-0.02 -0.02,-0.03 -0.03,-0.04zm-0.16 0.08c0.04,0 0.07,0.03 0.07,0.07 0,0.05 -0.03,0.08 -0.07,0.08 -0.05,0 -0.08,-0.03 -0.08,-0.08 0,-0.02 0.02,-0.05 0.04,-0.06 0,-0.03 0.01,-0.08 0.04,-0.1l0.02 0.04c-0.01,0.02 -0.02,0.03 -0.02,0.05zm0.14 0.11c-0.02,-0.04 0,-0.08 0.03,-0.1 0.04,-0.03 0.08,-0.01 0.1,0.03 0.02,0.03 0.01,0.08 -0.02,0.1 -0.03,0.02 -0.06,0.02 -0.08,0 -0.02,0.02 -0.07,0.03 -0.1,0.02l0.02 -0.04c0.03,0 0.04,-0.01 0.05,-0.01z"/>
   <g>
    <path class="fil0" d="M0.18 0.11l0 0.01c0,0 0,0 0,0 -0.01,0.02 -0.01,0.01 -0.01,0.03 0,0 0.01,-0.01 0.01,-0.01l0.01 0c0,0.01 0,0.01 0,0.01 0.01,0 0.01,0 0.01,0 0,0 0,0 0,0 0.01,0 0.01,0 0.01,-0.01l0.01 0c0,0 0.01,0.01 0.01,0.01 0,-0.01 0,-0.01 0,-0.01 0,-0.01 0,-0.01 0,-0.01 0,0 -0.01,-0.01 -0.01,-0.01 0,-0.02 0,-0.01 0.01,-0.02 0,0 0,-0.01 0,-0.01 0,0 0,0 0.01,0 0.01,0 0,0 0.01,0 0,-0.01 0.01,-0.01 0.01,-0.01l-0.03 0c0,0 0,0 -0.01,0 0,0.01 0,0.01 -0.01,0.01 0,0.01 -0.01,0.02 -0.01,0.02l0 0.01 0 0c0,-0.02 0,-0.01 -0.01,-0.02 -0.01,-0.01 -0.01,-0.01 -0.01,-0.02 -0.01,0 -0.01,0 -0.01,0 0,-0.01 0,0 -0.01,0 -0.01,0 -0.01,0 -0.02,0 0,0 0,0 0,0l0.01 0.01c0,0 0,0 0.01,0 0.01,0 0,0 0.01,0.01 0.01,0 0.01,0 0.01,0.01z"/>
    <path class="fil0" d="M0.2 0.1c0,0 0,0 0,-0.01 0,0 0,0 0,0l-0.01 -0.01c-0.01,-0.01 0,-0.01 -0.01,-0.01 0,0 -0.01,-0.01 -0.01,-0.01 0,0.01 0,0.01 0,0.01 0,0.01 0,0.01 0,0.01l0.02 0.02c0,0 0.01,0 0.01,0z"/>
    <path class="fil0" d="M0.2 0.1c0,0 0,0 0.01,0l0 -0.01c0.01,0 0.01,-0.01 0.02,-0.01 0,-0.01 0,-0.01 0,-0.01 0,0 0,0 0,-0.01l-0.01 0.01c-0.01,0 -0.01,0 -0.01,0 0,0.01 0,0.01 0,0.01 0,0 0,0 -0.01,0.01 0,0 0,0 0,0 0,0.01 0,0.01 0,0.01z"/>
    <path class="fil0" d="M0.17 0.13c0,0 0,-0.01 0.01,-0.01 0,0 0,0 0,-0.01 0,0 -0.01,-0.01 -0.01,-0.01 0,0 0,0 0,0 -0.01,0 -0.01,0 -0.01,0 0,0 0,0 0.01,0.01 0,0 0,0 0,0 0,0.01 0,0.01 0,0.02z"/>
    <path class="fil0" d="M0.22 0.11c0,0.01 0,0.01 0,0.01 0.01,0 0.01,0.01 0.01,0.01l0 -0.02c0,0 0.01,-0.01 0.01,-0.01 0,0 0,0 0,0 0,0 0,0 -0.01,0 0,0 0,0 0,0 0,0 -0.01,0.01 -0.01,0.01z"/>
   </g>
   <g>
    <path class="fil0" d="M0.31 0.35c0,0 0,0 0,0l0.02 -0.01c0,0 0,-0.01 0,-0.01l0 -0.03c0,0 0,0 0,0l0.02 -0.02c0.01,-0.01 0.01,-0.01 0.02,-0.02l-0.02 0c0,0 0,0 0,0l-0.03 0.03c-0.01,0.01 -0.01,0 -0.01,0.03l0 0 0 -0.02c0,0 -0.01,-0.01 -0.01,-0.01 -0.01,-0.01 -0.01,-0.01 -0.02,-0.01 0,-0.01 0,-0.01 -0.01,-0.01 0,-0.01 0,-0.01 -0.01,-0.01 0,0 0,0 -0.01,0 0,0.01 0.01,0.01 0.01,0.01l0.01 0.01c0,0 0.01,0.01 0.01,0.01l0.01 0.01c0,0 0,0 0,0l0 0.03c0,0.01 0,0.01 0,0.01 0.01,0 0.02,0.01 0.02,0.01z"/>
    <polygon class="fil0" points="0.29,0.28 0.31,0.3 0.32,0.28 0.31,0.26 "/>
    <path class="fil0" d="M0.33 0.33c0,0 0.01,-0.01 0.01,-0.01 0,0 0,0 0,-0.01 0,0 0,-0.01 0,-0.02 0,0 0,0.01 0,0.01 -0.01,0 -0.01,0 -0.01,0 0,0.01 0,0.02 0,0.03z"/>
    <path class="fil0" d="M0.29 0.33c0,-0.01 0,-0.02 0,-0.03 0,0 0,0 -0.01,0 0,-0.01 0,-0.01 0,-0.01 0,0.01 0,0.02 0,0.02 0,0.01 0,0.01 0,0.01 0,0 0,0 0.01,0.01z"/>
   </g>
   <g>
    <path class="fil0" d="M0.05 0.25l0 0c0,0.01 0,0.02 0,0.03l0 0c0,0.01 0,0.01 0.01,0.01l0.03 0.03c0,0 0,0.01 0.01,0.01 0,0 0,0 0,-0.01l0.02 -0.02c0.01,0 0.01,-0.01 0.02,-0.01 0,0 0,-0.01 0,-0.01l0 0 0 -0.03c0,0 0,0 -0.01,0.01l-0.02 0.02c0,0 0,0 0,0 0,0.01 0,0.01 0,0.02l-0.01 0.01c-0.01,0 -0.02,-0.01 -0.02,-0.01 0,-0.01 0,-0.02 0,-0.02 0,0 -0.01,-0.01 -0.01,-0.01 0,0 -0.01,-0.02 -0.02,-0.02z"/>
    <path class="fil0" d="M0.1 0.36l0.02 -0.03c0,0 0,0 0,0 0,-0.01 0,-0.02 0,-0.02 0,0 -0.02,0.02 -0.02,0.02 0,0 0,0 0,0 0,0 -0.03,-0.02 -0.03,-0.02 0,0 0,0.01 0,0.02 0,0 0,0 0,0l0.03 0.03z"/>
    <path class="fil0" d="M0.08 0.29c0,0.01 0.01,0.01 0.01,0.01 0,0 0,0 0.01,0.01 0,-0.01 0.01,-0.01 0.01,-0.02l0 -0.01 -0.03 0 0 0.01z"/>
   </g>
  </g>
 </g>
</svg>
