<?xml version="1.0" encoding="UTF-8"?>
<!DOCTYPE svg PUBLIC "-//W3C//DTD SVG 1.1//EN" "http://www.w3.org/Graphics/SVG/1.1/DTD/svg11.dtd">
<!-- Creator: CorelDRAW (Версия для OEM) -->
<svg xmlns="http://www.w3.org/2000/svg" xml:space="preserve" width="24px" height="25px" version="1.1" style="shape-rendering:geometricPrecision; text-rendering:geometricPrecision; image-rendering:optimizeQuality; fill-rule:evenodd; clip-rule:evenodd"
viewBox="0 0 24 25"
 xmlns:xlink="http://www.w3.org/1999/xlink"
 xmlns:xodm="http://www.corel.com/coreldraw/odm/2003">
 <defs>
  <style type="text/css">
   <![CDATA[
    .fil0 {fill:#A7F2A2;fill-rule:nonzero}
   ]]>
  </style>
 </defs>
 <g id="Слой_x0020_1">
  <metadata id="CorelCorpID_0Corel-Layer"/>
  <path class="fil0" d="M19.81 1.13l-15.62 0c0.1,1.03 0.22,2.09 0.4,3.12 0.21,1.23 0.48,2.44 0.87,3.53l0.14 0.44c0.07,0.21 0.14,0.41 0.22,0.62 0.62,1.46 1.25,2.96 2.3,4.17 0.45,0.53 0.94,1.03 1.48,1.43 0.52,0.37 1.11,0.66 1.8,0.78 0.24,0.05 0.41,0.07 0.58,0.07 0.16,0 0.34,-0.02 0.59,-0.06 0.26,-0.04 0.51,-0.12 0.75,-0.21 0.24,-0.09 0.48,-0.21 0.71,-0.34 0.37,-0.22 0.73,-0.5 1.06,-0.81 0.39,-0.36 0.74,-0.77 1.04,-1.17l1.13 -1.81c0.27,-0.51 0.49,-0.98 0.68,-1.46 0.2,-0.49 0.38,-0.99 0.57,-1.57 0.41,-1.2 0.69,-2.37 0.89,-3.56 0.18,-1.01 0.3,-2.06 0.41,-3.17zm-11.32 20.18l7.02 0 0 -1.3 -7.02 0 0 1.3zm-3.9 3.13l0 -0.56c0,-0.54 0.24,-1.05 0.62,-1.42 0.37,-0.36 0.89,-0.59 1.45,-0.59l0.65 0 0 -2.99 0.82 0 0.23 -0.31 0.26 -0.31c0.31,-0.38 0.5,-0.69 0.64,-1.02 0.15,-0.35 0.26,-0.76 0.39,-1.28l0.04 -0.14c-0.28,-0.14 -0.54,-0.31 -0.79,-0.49 -0.63,-0.45 -1.18,-1.02 -1.68,-1.6 -0.22,-0.25 -0.42,-0.51 -0.6,-0.77l-0.6 -0.15c-0.3,-0.07 -0.71,-0.43 -0.97,-0.66l-0.15 -0.13c-0.45,-0.38 -0.53,-0.46 -0.69,-0.63l-0.35 -0.35 -0.26 -0.3c-0.84,-0.97 -1.53,-2.03 -2.08,-3.15 -0.57,-1.14 -0.98,-2.36 -1.25,-3.62l-0.03 -0.14c-0.1,-0.48 -0.24,-1.15 -0.24,-1.63l0 -0.57 3.06 0 -0.09 -1.02 -0.06 -0.61 0.64 0 17.54 0 -0.06 0.61 -0.09 1.02 3.06 0 0 0.57c0,0.16 -0.03,0.43 -0.08,0.72l-0.2 1.09c-0.27,1.26 -0.68,2.46 -1.23,3.58 -0.56,1.12 -1.27,2.18 -2.12,3.18l-0.47 0.52c-0.11,0.13 -0.61,0.59 -1.04,0.95 -0.34,0.28 -0.68,0.52 -0.88,0.57l-0.64 0.16 -0.24 0.35c-0.33,0.46 -0.74,0.93 -1.19,1.35 -0.39,0.38 -0.83,0.72 -1.29,0.97l-0.3 0.17 0.24 0.92c0.07,0.23 0.16,0.45 0.27,0.71 0.18,0.4 0.36,0.6 0.52,0.78 0.1,0.1 0.19,0.21 0.3,0.35l0.22 0.31 0.82 0 0 2.99 0.65 0c0.56,0 1.08,0.23 1.45,0.59 0.38,0.37 0.62,0.88 0.62,1.42l0 1.12 -14.82 0 0 -0.56zm5.41 -6.12l3.99 0 -0.23 -0.44c-0.13,-0.3 -0.23,-0.55 -0.31,-0.81l-0.1 -0.3c-0.58,0.16 -1.4,0.35 -2.71,0.01 -0.09,0.32 -0.18,0.61 -0.29,0.88 -0.1,0.23 -0.21,0.45 -0.35,0.66zm6.03 -9.9l0.78 0.31 -4.81 1.86 -4.81 -1.86 0.78 -0.31 -1.52 -0.82 1.62 -0.87c0,-0.62 0.01,0.74 0.01,-4.35l3.15 2.23 0.77 0 0.77 0 3.15 -2.23c0,5.09 0.01,3.73 0.01,4.35l1.62 0.87 -1.52 0.82zm3.65 1.39c0.69,-0.85 1.28,-1.75 1.75,-2.71 0.52,-1.04 0.9,-2.15 1.14,-3.31l0.19 -1.03 -1.34 0 -0.38 2.36c-0.09,0.46 -0.19,0.94 -0.31,1.42 -0.12,0.47 -0.24,0.9 -0.35,1.28 -0.24,0.76 -0.46,1.39 -0.7,1.99zm-15.35 0.01c-0.25,-0.61 -0.47,-1.25 -0.7,-2.01 -0.13,-0.41 -0.25,-0.85 -0.36,-1.29l-0.31 -1.36c-0.04,-0.21 -0.19,-1.07 -0.3,-1.81l-0.08 -0.59 -1.35 0 0.19 0.99c0.24,1.16 0.63,2.3 1.15,3.36 0.48,0.96 1.06,1.87 1.76,2.71zm1.44 14.05l12.46 0c0,-0.23 -0.1,-0.45 -0.27,-0.61 -0.16,-0.16 -0.39,-0.27 -0.62,-0.27l-10.68 0c-0.23,0 -0.46,0.11 -0.62,0.27 -0.17,0.16 -0.27,0.38 -0.27,0.61z"/>
 </g>
</svg>
