<svg width="32" height="24" viewBox="0 0 32 24" fill="none" xmlns="http://www.w3.org/2000/svg">
<path d="M20.9373 16.3308C19.3861 16.3308 18.1125 14.909 18.1125 13.1649C18.1125 11.4213 19.3579 9.98748 20.9373 9.98748C22.518 9.98748 23.7796 11.4092 23.7634 13.1571C23.7443 14.9045 22.518 16.3308 20.9373 16.3308ZM10.4943 16.3308C8.94231 16.3308 7.6695 14.909 7.6695 13.1649C7.6695 11.4213 8.9141 9.98748 10.4943 9.98748C12.075 9.98748 13.337 11.4092 13.3216 13.1571C13.3075 14.9045 12.075 16.3308 10.4943 16.3308ZM26.6268 2.00256C24.5628 1.05252 22.3815 0.378358 20.1425 0C19.8579 0.497424 19.5367 1.16536 19.3119 1.70385C16.9293 1.34873 14.5069 1.34873 12.1256 1.70385C11.8717 1.12304 11.5858 0.552602 11.273 0C9.03026 0.378358 6.84641 1.05583 4.78245 2.01086C0.690209 8.11312 -0.421217 14.0694 0.13263 19.9351C2.53512 21.7195 5.22718 23.0778 8.09059 23.9502C8.73405 23.0765 9.30449 22.1522 9.7961 21.1855C8.86432 20.8375 7.9682 20.4093 7.11234 19.9036C7.33553 19.7343 7.55209 19.5651 7.7616 19.3942C12.7972 21.7767 18.6369 21.7767 23.6738 19.3942C23.8879 19.5709 24.109 19.7414 24.3314 19.9061C23.4738 20.4139 22.5756 20.8445 21.6418 21.1938C22.1321 22.1592 22.7026 23.0823 23.3481 23.9527C26.2115 23.0836 28.9036 21.7253 31.3048 19.9364C31.9529 13.1367 30.1855 7.23443 26.6268 2.00256Z" fill="#A7F2A2"/>
</svg>
