<?xml version="1.0" encoding="UTF-8"?>
<!DOCTYPE svg PUBLIC "-//W3C//DTD SVG 1.1//EN" "http://www.w3.org/Graphics/SVG/1.1/DTD/svg11.dtd">
<!-- Creator: CorelDRAW (Версия для OEM) -->
<svg xmlns="http://www.w3.org/2000/svg" xml:space="preserve" width="16px" height="16px" version="1.1" style="shape-rendering:geometricPrecision; text-rendering:geometricPrecision; image-rendering:optimizeQuality; fill-rule:evenodd; clip-rule:evenodd"
viewBox="0 0 15.83 15.84"
 xmlns:xlink="http://www.w3.org/1999/xlink"
 xmlns:xodm="http://www.corel.com/coreldraw/odm/2003">
 <defs>
  <style type="text/css">
   <![CDATA[
    .fil0 {fill:#A7F2A2;fill-rule:nonzero}
   ]]>
  </style>
 </defs>
 <g id="Слой_x0020_1">
  <metadata id="CorelCorpID_0Corel-Layer"/>
  <path class="fil0" d="M0 6.87c0,-1.9 0.77,-3.62 2.01,-4.86 1.24,-1.24 2.96,-2.01 4.86,-2.01 1.9,0 3.61,0.77 4.85,2.01 1.25,1.24 2.02,2.96 2.02,4.86 0,1.69 -0.61,3.24 -1.63,4.43l3.72 3.73 -0.81 0.81 -3.72 -3.73c-1.19,1.02 -2.74,1.63 -4.43,1.63 -1.9,0 -3.62,-0.77 -4.86,-2.02 -1.24,-1.24 -2.01,-2.96 -2.01,-4.85zm2.82 -4.05c-1.03,1.04 -1.68,2.47 -1.68,4.05 0,1.58 0.65,3.01 1.68,4.04 1.04,1.04 2.47,1.68 4.05,1.68 1.58,0 3.01,-0.64 4.04,-1.68 1.04,-1.03 1.68,-2.46 1.68,-4.04 0,-1.58 -0.64,-3.01 -1.68,-4.05 -1.03,-1.03 -2.46,-1.68 -4.04,-1.68 -1.58,0 -3.01,0.65 -4.05,1.68z"/>
 </g>
</svg>
