<?xml version="1.0" encoding="UTF-8"?>
<!DOCTYPE svg PUBLIC "-//W3C//DTD SVG 1.1//EN" "http://www.w3.org/Graphics/SVG/1.1/DTD/svg11.dtd">
<!-- Creator: CorelDRAW (Версия для OEM) -->
<svg xmlns="http://www.w3.org/2000/svg" xml:space="preserve" width="12px" height="15px" version="1.1" style="shape-rendering:geometricPrecision; text-rendering:geometricPrecision; image-rendering:optimizeQuality; fill-rule:evenodd; clip-rule:evenodd"
viewBox="0 0 12 14.4"
 xmlns:xlink="http://www.w3.org/1999/xlink"
 xmlns:xodm="http://www.corel.com/coreldraw/odm/2003">
 <defs>
  <style type="text/css">
   <![CDATA[
    .fil0 {fill:#A7F2A2}
   ]]>
  </style>
 </defs>
 <g id="Слой_x0020_1">
  <metadata id="CorelCorpID_0Corel-Layer"/>
  <path class="fil0" d="M5.28 14.07c0.26,0.2 0.47,0.35 0.72,0.33 0.25,0.02 0.46,-0.13 0.72,-0.33 2.17,-1.62 3.25,-2.91 4.73,-5.14 0.68,-1.13 0.54,-1.17 0.53,-2.71 -0.01,-1.08 -0.01,-2.17 0.01,-3.25 0.01,-1.24 0,-1.76 -1.19,-2.16 -1.64,-0.54 -3.21,-0.81 -4.8,-0.81 -1.59,0 -3.15,0.27 -4.8,0.81 -1.19,0.4 -1.2,0.92 -1.18,2.16 0.01,1.08 0.01,2.17 0,3.25 -0.01,1.54 -0.15,1.58 0.53,2.71 1.48,2.23 2.56,3.52 4.73,5.14z"/>
 </g>
</svg>
