<?xml version="1.0" encoding="UTF-8"?>
<!DOCTYPE svg PUBLIC "-//W3C//DTD SVG 1.1//EN" "http://www.w3.org/Graphics/SVG/1.1/DTD/svg11.dtd">
<!-- Creator: CorelDRAW (Версия для OEM) -->
<svg xmlns="http://www.w3.org/2000/svg" xml:space="preserve" width="25px" height="25px" version="1.1" style="shape-rendering:geometricPrecision; text-rendering:geometricPrecision; image-rendering:optimizeQuality; fill-rule:evenodd; clip-rule:evenodd"
viewBox="0 0 25 25"
 xmlns:xlink="http://www.w3.org/1999/xlink"
 xmlns:xodm="http://www.corel.com/coreldraw/odm/2003">
 <defs>
  <style type="text/css">
   <![CDATA[
    .fil0 {fill:#13AD91;fill-rule:nonzero}
   ]]>
  </style>
 </defs>
 <g id="Слой_x0020_1">
  <metadata id="CorelCorpID_0Corel-Layer"/>
  <path class="fil0" d="M5.13 0.84c0,-0.47 0.37,-0.84 0.84,-0.84 0.46,0 0.84,0.37 0.84,0.84l0 2.69 11.38 0 0 -2.69c0,-0.47 0.38,-0.84 0.84,-0.84 0.47,0 0.84,0.37 0.84,0.84l0 2.69 2.44 0c0.74,0 1.41,0.3 1.9,0.78 0.49,0.49 0.79,1.16 0.79,1.9l0 16.11c0,0.74 -0.3,1.41 -0.79,1.9 -0.49,0.48 -1.16,0.78 -1.9,0.78l-19.62 0c-0.74,0 -1.41,-0.3 -1.9,-0.78 -0.49,-0.49 -0.79,-1.16 -0.79,-1.9l0 -16.11c0,-0.74 0.3,-1.41 0.79,-1.9 0.49,-0.48 1.16,-0.78 1.9,-0.78l2.44 0 0 -2.69zm0.84 15.98c0.97,0 1.76,0.79 1.76,1.76 0,0.96 -0.79,1.75 -1.76,1.75 -0.98,0 -1.77,-0.79 -1.77,-1.75 0,-0.97 0.79,-1.76 1.77,-1.76zm6.53 -5.27c0.97,0 1.76,0.79 1.76,1.76 0,0.97 -0.79,1.75 -1.76,1.75 -0.97,0 -1.76,-0.78 -1.76,-1.75 0,-0.97 0.79,-1.76 1.76,-1.76zm6.53 0c0.98,0 1.77,0.79 1.77,1.76 0,0.97 -0.79,1.75 -1.77,1.75 -0.97,0 -1.76,-0.78 -1.76,-1.75 0,-0.97 0.79,-1.76 1.76,-1.76zm-13.06 0c0.97,0 1.76,0.79 1.76,1.76 0,0.97 -0.79,1.75 -1.76,1.75 -0.98,0 -1.77,-0.78 -1.77,-1.75 0,-0.97 0.79,-1.76 1.77,-1.76zm0.84 -6.35l0 2.69c0,0.46 -0.38,0.84 -0.84,0.84 -0.47,0 -0.84,-0.38 -0.84,-0.84l0 -2.69 -2.44 0c-0.27,0 -0.53,0.11 -0.71,0.3 -0.18,0.18 -0.3,0.43 -0.3,0.71l0 16.11c0,0.28 0.12,0.53 0.3,0.71 0.18,0.19 0.44,0.3 0.71,0.3l19.62 0c0.27,0 0.53,-0.11 0.71,-0.3 0.19,-0.18 0.3,-0.43 0.3,-0.71l0 -16.11c0,-0.28 -0.11,-0.53 -0.3,-0.71 -0.18,-0.19 -0.44,-0.3 -0.71,-0.3l-2.44 0 0 2.69c0,0.46 -0.37,0.84 -0.84,0.84 -0.46,0 -0.84,-0.38 -0.84,-0.84l0 -2.69 -11.38 0z"/>
 </g>
</svg>
