<?xml version="1.0" encoding="UTF-8"?>
<!DOCTYPE svg PUBLIC "-//W3C//DTD SVG 1.1//EN" "http://www.w3.org/Graphics/SVG/1.1/DTD/svg11.dtd">
<!-- Creator: CorelDRAW (Версия для OEM) -->
<svg xmlns="http://www.w3.org/2000/svg" xml:space="preserve" width="15px" height="15px" version="1.1" style="shape-rendering:geometricPrecision; text-rendering:geometricPrecision; image-rendering:optimizeQuality; fill-rule:evenodd; clip-rule:evenodd"
viewBox="0 0 15 15"
 xmlns:xlink="http://www.w3.org/1999/xlink"
 xmlns:xodm="http://www.corel.com/coreldraw/odm/2003">
 <defs>
  <style type="text/css">
   <![CDATA[
    .fil0 {fill:#23423F}
   ]]>
  </style>
 </defs>
 <g id="Слой_x0020_1">
  <metadata id="CorelCorpID_0Corel-Layer"/>
  <path class="fil0" d="M7.5 0c4.14,0 7.5,3.36 7.5,7.5 0,4.14 -3.36,7.5 -7.5,7.5 -4.14,0 -7.5,-3.36 -7.5,-7.5 0,-4.14 3.36,-7.5 7.5,-7.5zm0.98 3.26l0 3.26 2.77 0 0 1.96 -4.73 0 0 -5.22 1.96 0zm2.93 0.33c-1,-1 -2.38,-1.62 -3.91,-1.62 -1.53,0 -2.92,0.62 -3.91,1.61 -1,1.01 -1.62,2.39 -1.62,3.92 0,1.53 0.62,2.91 1.62,3.91 1,1 2.38,1.62 3.91,1.62 1.53,0 2.92,-0.62 3.92,-1.62 0.99,-1 1.61,-2.38 1.61,-3.91 0,-1.53 -0.62,-2.91 -1.62,-3.91z"/>
 </g>
</svg>
