<?xml version="1.0" encoding="UTF-8"?>
<!DOCTYPE svg PUBLIC "-//W3C//DTD SVG 1.1//EN" "http://www.w3.org/Graphics/SVG/1.1/DTD/svg11.dtd">
<!-- Creator: CorelDRAW (Версия для OEM) -->
<svg xmlns="http://www.w3.org/2000/svg" xml:space="preserve" width="25px" height="25px" version="1.1" style="shape-rendering:geometricPrecision; text-rendering:geometricPrecision; image-rendering:optimizeQuality; fill-rule:evenodd; clip-rule:evenodd"
viewBox="0 0 25 25"
 xmlns:xlink="http://www.w3.org/1999/xlink"
 xmlns:xodm="http://www.corel.com/coreldraw/odm/2003">
 <defs>
  <style type="text/css">
   <![CDATA[
    .fil0 {fill:#13AD91}
   ]]>
  </style>
 </defs>
 <g id="Слой_x0020_1">
  <metadata id="CorelCorpID_0Corel-Layer"/>
  <path class="fil0" d="M18.35 0c2.48,0 4.49,2 4.49,4.47 0,2.46 -2.01,4.46 -4.49,4.46 3.67,0 6.65,2.97 6.65,6.62l0 9.45 -6.65 0 -2.17 0 0 -7.46c0,-2.39 -0.97,-4.55 -2.55,-6.11 -0.08,-0.09 -0.17,-0.18 -0.26,-0.26 1.22,-1.37 3,-2.24 4.98,-2.24 -2.48,0 -4.49,-2 -4.49,-4.46 0,-2.47 2.01,-4.47 4.49,-4.47zm-10.85 0c2.8,0 5.06,2.25 5.06,5.04 0,2.78 -2.26,5.04 -5.06,5.04 4.14,0 7.5,3.34 7.5,7.46l0 7.46 -7.5 0 -7.5 0 0 -7.46c0,-4.12 3.36,-7.46 7.5,-7.46 -2.8,0 -5.06,-2.26 -5.06,-5.04 0,-2.79 2.26,-5.04 5.06,-5.04z"/>
 </g>
</svg>
