<?xml version="1.0" encoding="UTF-8"?>
<!DOCTYPE svg PUBLIC "-//W3C//DTD SVG 1.1//EN" "http://www.w3.org/Graphics/SVG/1.1/DTD/svg11.dtd">
<!-- Creator: CorelDRAW (Версия для OEM) -->
<svg xmlns="http://www.w3.org/2000/svg" xml:space="preserve" width="14px" height="15px" version="1.1" style="shape-rendering:geometricPrecision; text-rendering:geometricPrecision; image-rendering:optimizeQuality; fill-rule:evenodd; clip-rule:evenodd"
viewBox="0 0 14 15"
 xmlns:xlink="http://www.w3.org/1999/xlink"
 xmlns:xodm="http://www.corel.com/coreldraw/odm/2003">
 <defs>
  <style type="text/css">
   <![CDATA[
    .fil0 {fill:#A7F2A2}
   ]]>
  </style>
 </defs>
 <g id="Слой_x0020_1">
  <metadata id="CorelCorpID_0Corel-Layer"/>
  <path class="fil0" d="M1.7 11.85l1.7 0 0 -9.53c0.02,-0.82 -0.93,-2.09 -1.7,-2.32 -0.77,0.23 -1.72,1.5 -1.7,2.32l0 9.53 1.7 0zm8.9 1.29l3.4 0 0 1.86 -3.4 0 0 -1.86zm1.7 -1.29l1.7 0 0 -9.53c0.02,-0.82 -0.93,-2.09 -1.7,-2.32 -0.77,0.23 -1.72,1.5 -1.7,2.32l0 9.53 1.7 0zm-7 1.29l3.4 0 0 1.86 -3.4 0 0 -1.86zm1.7 -1.29l1.7 0 0 -9.53c0.02,-0.82 -0.93,-2.09 -1.7,-2.32 -0.77,0.23 -1.72,1.5 -1.7,2.32l0 9.53 1.7 0zm-7 1.29l3.4 0 0 1.86 -3.4 0 0 -1.86z"/>
 </g>
</svg>
