<?xml version="1.0" encoding="UTF-8"?>
<!DOCTYPE svg PUBLIC "-//W3C//DTD SVG 1.1//EN" "http://www.w3.org/Graphics/SVG/1.1/DTD/svg11.dtd">
<!-- Creator: CorelDRAW (Версия для OEM) -->
<svg xmlns="http://www.w3.org/2000/svg" xml:space="preserve" width="15px" height="15px" version="1.1" style="shape-rendering:geometricPrecision; text-rendering:geometricPrecision; image-rendering:optimizeQuality; fill-rule:evenodd; clip-rule:evenodd"
viewBox="0 0 15 15"
 xmlns:xlink="http://www.w3.org/1999/xlink"
 xmlns:xodm="http://www.corel.com/coreldraw/odm/2003">
 <defs>
  <style type="text/css">
   <![CDATA[
    .fil0 {fill:#A7F2A2}
   ]]>
  </style>
 </defs>
 <g id="Слой_x0020_1">
  <metadata id="CorelCorpID_0Corel-Layer"/>
  <path class="fil0" d="M5.94 0l3.12 0c0.66,0 1.2,0.54 1.2,1.2l0 3.54 3.54 0c0.66,0 1.2,0.54 1.2,1.2l0 3.12c0,0.66 -0.54,1.2 -1.2,1.2l-3.54 0 0 3.54c0,0.66 -0.54,1.2 -1.2,1.2l-3.12 0c-0.66,0 -1.2,-0.54 -1.2,-1.2l0 -3.54 -3.54 0c-0.66,0 -1.2,-0.54 -1.2,-1.2l0 -3.12c0,-0.66 0.54,-1.2 1.2,-1.2l3.54 0 0 -3.54c0,-0.66 0.54,-1.2 1.2,-1.2z"/>
 </g>
</svg>
