<?xml version="1.0" encoding="UTF-8"?>
<!DOCTYPE svg PUBLIC "-//W3C//DTD SVG 1.1//EN" "http://www.w3.org/Graphics/SVG/1.1/DTD/svg11.dtd">
<!-- Creator: CorelDRAW (Версия для OEM) -->
<svg xmlns="http://www.w3.org/2000/svg" xml:space="preserve" width="15px" height="15px" version="1.1" style="shape-rendering:geometricPrecision; text-rendering:geometricPrecision; image-rendering:optimizeQuality; fill-rule:evenodd; clip-rule:evenodd"
viewBox="0 0 15 15"
 xmlns:xlink="http://www.w3.org/1999/xlink"
 xmlns:xodm="http://www.corel.com/coreldraw/odm/2003">
 <defs>
  <style type="text/css">
   <![CDATA[
    .fil0 {fill:#A7F2A2}
   ]]>
  </style>
 </defs>
 <g id="Слой_x0020_1">
  <metadata id="CorelCorpID_0Corel-Layer"/>
  <path class="fil0" d="M3.33 8.11c1.6,0.12 2.85,1.53 2.85,3.24 0,1.8 -1.38,3.26 -3.09,3.26 -1.71,0 -3.09,-1.46 -3.09,-3.26 0,-1.17 0.59,-2.2 1.48,-2.78l0 0c-0.02,-1.25 0.54,-3.21 1.6,-4.07l0.92 1.66c-0.49,0.8 -0.64,1.33 -0.67,1.95zm5.79 4.62c-0.7,-1.52 -0.17,-3.37 1.24,-4.22 1.48,-0.9 3.37,-0.37 4.22,1.19 0.86,1.56 0.35,3.55 -1.13,4.45 -0.96,0.59 -2.11,0.56 -3.02,0.04l0 0c-1.03,0.64 -2.92,1.12 -4.15,0.58l0.9 -1.68c0.91,0.05 1.41,-0.07 1.94,-0.36zm2.52 -3.2l0.69 0c0.15,0 0.27,0.12 0.27,0.28l0 0.82 0.78 0c0.14,0 0.26,0.13 0.26,0.28l0 0.73c0,0.16 -0.12,0.28 -0.26,0.28l-0.78 0 0 0.83c0,0.15 -0.12,0.28 -0.27,0.28l-0.69 0c-0.15,0 -0.27,-0.13 -0.27,-0.28l0 -0.83 -0.78 0c-0.15,0 -0.27,-0.12 -0.27,-0.28l0 -0.73c0,-0.15 0.12,-0.28 0.27,-0.28l0.78 0 0 -0.82c0,-0.16 0.12,-0.28 0.27,-0.28zm-1.63 -4.43c-0.91,1.39 -2.69,1.84 -4.1,0.98 -1.48,-0.9 -1.98,-2.89 -1.13,-4.45 0.85,-1.56 2.74,-2.09 4.22,-1.19 0.97,0.59 1.52,1.64 1.55,2.74 1.04,0.61 2.37,2.1 2.55,3.5l-1.83 0.01c-0.41,-0.85 -0.77,-1.25 -1.26,-1.59zm-2.68 -0.12c0.06,0.05 0.11,0.08 0.17,0.08 0.06,0 0.1,-0.03 0.16,-0.08 0.5,-0.39 0.75,-0.71 1.09,-1.25 0.15,-0.28 0.12,-0.29 0.12,-0.66 0,-0.26 0,-0.53 0,-0.79 0,-0.3 0,-0.43 -0.27,-0.53 -0.38,-0.13 -0.74,-0.19 -1.1,-0.19 -0.37,0 -0.72,0.06 -1.1,0.19 -0.27,0.1 -0.28,0.23 -0.27,0.53 0,0.26 0,0.53 0,0.79 0,0.37 -0.04,0.38 0.12,0.66 0.34,0.54 0.59,0.86 1.08,1.25zm-5.36 7.31l0.36 0 0 -2.22c0,-0.19 -0.2,-0.49 -0.36,-0.54 -0.17,0.05 -0.37,0.35 -0.37,0.54l0 2.22 0.37 0zm-0.37 0.3l0.73 0 0 0.44 -0.73 0 0 -0.44zm1.5 -0.3l0.36 0 0 -2.22c0.01,-0.19 -0.2,-0.49 -0.36,-0.54 -0.16,0.05 -0.37,0.35 -0.36,0.54l0 2.22 0.36 0zm-0.36 0.3l0.72 0 0 0.44 -0.72 0 0 -0.44zm1.49 -0.3l0.37 0 0 -2.22c0,-0.19 -0.2,-0.49 -0.37,-0.54 -0.16,0.05 -0.37,0.35 -0.36,0.54l0 2.22 0.36 0zm-0.36 0.3l0.73 0 0 0.44 -0.73 0 0 -0.44z"/>
 </g>
</svg>
