<?xml version="1.0" encoding="UTF-8"?>
<!DOCTYPE svg PUBLIC "-//W3C//DTD SVG 1.1//EN" "http://www.w3.org/Graphics/SVG/1.1/DTD/svg11.dtd">
<!-- Creator: CorelDRAW (Версия для OEM) -->
<svg xmlns="http://www.w3.org/2000/svg" xml:space="preserve" width="26px" height="25px" version="1.1" style="shape-rendering:geometricPrecision; text-rendering:geometricPrecision; image-rendering:optimizeQuality; fill-rule:evenodd; clip-rule:evenodd"
viewBox="0 0 26 25"
 xmlns:xlink="http://www.w3.org/1999/xlink"
 xmlns:xodm="http://www.corel.com/coreldraw/odm/2003">
 <defs>
  <style type="text/css">
   <![CDATA[
    .fil0 {fill:#A7F2A2}
   ]]>
  </style>
 </defs>
 <g id="Слой_x0020_1">
  <metadata id="CorelCorpID_0Corel-Layer"/>
  <path class="fil0" d="M13.79 19.39c-0.2,-1.02 -0.14,-2.07 0.16,-3.05 0.44,-1.44 1.41,-2.72 2.81,-3.54 0.35,-0.2 0.71,-0.36 1.08,-0.49l-0.2 -0.38c-0.23,-0.45 -0.44,-0.79 -0.64,-1.05 -0.78,0.69 -1.71,1.16 -2.71,1.38 -1.45,0.34 -3.04,0.14 -4.44,-0.68l0 0c-0.33,-0.19 -0.64,-0.41 -0.92,-0.66l-0.2 0.33c-0.27,0.42 -0.46,0.77 -0.59,1.09 0.98,0.33 1.85,0.91 2.54,1.66 1.02,1.11 1.65,2.59 1.65,4.22 0,0.4 -0.04,0.8 -0.12,1.19l0.35 0.02c0.5,0.02 0.9,0.01 1.23,-0.04zm-10.37 -3.87l0 0.06c0,0.58 0,1.17 0,1.75l0 0.28c0.01,0.11 0.07,0.13 0.34,0.4l1.93 1.85c0.14,0.13 0.38,0.35 0.47,0.49 0.16,-0.11 0.25,-0.26 0.4,-0.37l1.17 -1.14c0.34,-0.34 0.87,-0.8 1.17,-1.13 0.04,-0.05 0.06,-0.1 0.07,-0.17l0 -0.54 0 -1.29c-0.01,-0.38 -0.11,-0.06 -0.63,0.4l-0.99 0.93c-0.22,0.22 -0.23,0.13 -0.23,0.54 0,0.27 0,0.54 0,0.81l-0.93 0.7c-0.26,-0.17 -0.79,-0.62 -0.95,-0.7 0,-0.23 0.05,-0.99 -0.03,-1.14 -0.02,-0.03 -0.53,-0.54 -0.59,-0.59 -0.22,-0.17 -1.05,-1.03 -1.2,-1.14zm2.77 6.44l1.47 -1.4c0.16,-0.16 0.17,-0.1 0.16,-0.4 0,-0.39 0,-0.78 0,-1.16 -0.17,0.11 -1.25,1.21 -1.43,1.35 -0.08,0.07 -0.16,0.14 -0.23,0.19 -0.03,-0.05 -1.45,-1.43 -1.62,-1.54 0,0.38 0,0.77 -0.01,1.16 0,0.3 0.01,0.24 0.17,0.4l1.49 1.4zm-0.73 -3.73c0,0.1 0.23,0.24 0.34,0.33 0.14,0.12 0.25,0.21 0.39,0.31 0.11,-0.14 0.71,-0.51 0.71,-0.64l0 -0.81 -1.44 0 0 0.81zm14.44 3.63c0.1,-0.09 0.19,-0.17 0.3,-0.25l0.95 -0.78c0.16,-0.12 0.11,-0.18 0.11,-0.45l-0.01 -1.76c0,-0.21 -0.01,-0.14 0.21,-0.36l1.16 -1.11c0.21,-0.21 0.81,-0.77 0.88,-0.88l-1.05 0c-0.18,0 -0.16,0.01 -0.26,0.11l-1.62 1.58c-0.66,0.63 -0.53,0.17 -0.53,1.64l-0.31 0 0 -1.09c0,-0.1 -0.54,-0.56 -0.7,-0.72 -0.24,-0.25 -0.48,-0.45 -0.72,-0.7 -0.25,-0.25 -0.48,-0.45 -0.72,-0.7 -0.16,-0.17 -0.17,-0.12 -0.61,-0.12 -0.23,0 -0.48,0 -0.72,0 0.12,0.18 0.42,0.41 0.58,0.57l0.58 0.56c0.2,0.17 0.37,0.4 0.57,0.57l0.45 0.42c0.08,0.08 0.07,0.07 0.07,0.23l0 2.01c0.01,0.17 0.16,0.24 0.42,0.45 0.17,0.13 0.83,0.71 0.97,0.78zm-0.99 -4.58l0.97 1 1 -1 -0.99 -0.97 -0.98 0.97zm2.49 2.9c0.12,-0.03 0.27,-0.21 0.36,-0.3 0.2,-0.2 0.19,-0.1 0.19,-0.48 0,-0.45 0,-0.91 0,-1.37 -0.13,0.04 -0.26,0.22 -0.35,0.32 -0.2,0.19 -0.21,0.11 -0.2,0.47 0,0.45 0,0.91 0,1.36zm-3.06 0c0,-0.44 0,-0.89 0,-1.34 0.01,-0.38 0.04,-0.29 -0.17,-0.49 -0.12,-0.12 -0.21,-0.24 -0.35,-0.32 0,0.45 0,0.9 0,1.34 0,0.39 -0.04,0.29 0.17,0.5 0.14,0.13 0.2,0.21 0.35,0.31zm-6.66 -13.58l0 0.78c0,0.1 -0.19,0.2 -0.31,0.33 -0.64,0.65 -0.52,0.17 -0.52,1.46 0.17,-0.09 0.66,-0.64 0.83,-0.76l0.58 0.54c0.06,0.07 0.09,0.07 0.15,0.13 0.17,0.15 0.2,0.24 0.44,0.4 0.08,-0.13 0.16,-0.16 0.27,-0.26 0.1,-0.09 0.18,-0.19 0.28,-0.28l0.59 -0.53c0.01,0.03 0.75,0.74 0.83,0.76 0,-0.22 0,-0.43 0,-0.64 0,-0.37 0.03,-0.31 -0.19,-0.49 -0.04,-0.04 -0.64,-0.59 -0.64,-0.66 0,-1.04 -0.13,-0.7 0.55,-1.38 0.09,-0.1 0.17,-0.19 0.28,-0.27 0.21,-0.17 0.07,-0.14 0.44,-0.14 0.6,0 0.42,0.08 0.82,-0.33 0.14,-0.15 0.48,-0.45 0.57,-0.59l-1.72 -0.01c-0.15,0.02 -0.46,0.4 -0.58,0.52 -0.2,0.2 -0.48,0.52 -0.7,0.69 -0.09,0.07 -0.69,0.64 -0.69,0.73l0 0.92 -0.25 0c0,-1.25 0.17,-0.77 -0.69,-1.63 -0.24,-0.25 -0.46,-0.47 -0.71,-0.71 -0.12,-0.13 -0.23,-0.21 -0.36,-0.34 -0.21,-0.22 -0.12,-0.18 -0.52,-0.17 -0.47,0 -0.94,0 -1.41,0 0.03,0.12 0.16,0.21 0.25,0.3l0.57 0.57c0.08,0.07 0.09,0.05 0.23,0.05 0.87,-0.01 0.47,-0.1 1.17,0.55 0.08,0.07 0.44,0.34 0.44,0.46zm1.03 -0.37c0,-0.17 0,-0.33 0,-0.5 0,-0.28 0.02,-0.23 -0.13,-0.37l-0.63 -0.63c-0.23,-0.23 0.14,-0.19 -0.28,-0.47 -0.11,-0.07 -0.53,-0.36 -0.63,-0.38 0.06,0.25 0,0.5 0.05,0.71 0.03,0.13 0,0.09 0.08,0.17l1.27 1.24c0.08,0.08 0.15,0.2 0.27,0.23zm0.25 0c0.12,-0.03 0.18,-0.13 0.26,-0.21l0.5 -0.51c0.27,-0.23 0.5,-0.48 0.76,-0.74 0.15,-0.14 0.07,-0.16 0.11,-0.4 0.02,-0.15 0.01,-0.33 0.01,-0.49l-0.75 0.48c-0.09,0.08 -0.04,0.02 -0.07,0.18 -0.03,0.21 -0.06,0.19 -0.19,0.31 -0.17,0.18 -0.32,0.34 -0.5,0.51 -0.15,0.14 -0.13,0.09 -0.13,0.37 0,0.17 0,0.33 0,0.5zm-1.97 1.57c0.12,-0.03 0.2,-0.13 0.28,-0.22 0.32,-0.32 0.25,-0.01 0.25,-0.93 0,-0.07 -0.4,-0.41 -0.54,-0.55 -0.21,-0.22 -0.14,-0.21 -0.35,-0.21 -0.19,0 -0.37,0.01 -0.56,0.01 0.09,0.13 0.53,0.51 0.7,0.69 0.2,0.2 0.22,0.12 0.22,0.48 0,0.24 0,0.49 0,0.73zm3.16 -1.15c0,0.9 -0.06,0.65 0.25,0.93 0.09,0.09 0.15,0.18 0.25,0.25l0 -1.04c0.23,-0.12 0.57,-0.56 0.8,-0.76 0.1,-0.08 0.09,-0.02 0.12,-0.13 -0.18,0 -0.35,-0.01 -0.53,-0.01 -0.21,0 -0.14,-0.01 -0.35,0.21 -0.09,0.09 -0.54,0.44 -0.54,0.55zm8.48 6c1.03,0.52 1.92,1.34 2.54,2.42l0 0c0.85,1.49 1.03,3.18 0.62,4.71 -0.41,1.54 -1.4,2.91 -2.88,3.77 -0.94,0.55 -1.97,0.82 -2.99,0.83 -0.8,0.01 -1.59,-0.13 -2.33,-0.43 -0.93,0.45 -2.1,0.81 -3.27,0.97 -1.29,0.17 -2.62,0.09 -3.74,-0.37l-1.43 -0.6 0.26 -0.45c-0.95,0.59 -2.06,0.93 -3.25,0.93 -1.7,0 -3.24,-0.7 -4.35,-1.82 -1.12,-1.13 -1.81,-2.68 -1.81,-4.39 0,-1.1 0.28,-2.14 0.79,-3.04 0.39,-0.7 0.91,-1.32 1.53,-1.82 0.09,-1.03 0.36,-2.23 0.81,-3.32 0.5,-1.22 1.23,-2.34 2.18,-3.08l1.23 -0.96 0.24 0.41c-0.04,-1.12 0.22,-2.26 0.82,-3.3l0 -0.01c0.85,-1.48 2.22,-2.48 3.74,-2.89 1.52,-0.41 3.2,-0.23 4.67,0.63l0.01 0c0.94,0.55 1.69,1.31 2.21,2.2 0.41,0.68 0.68,1.45 0.8,2.24 0.85,0.59 1.74,1.43 2.46,2.37 0.79,1.04 1.39,2.24 1.55,3.45l0.2 1.54 -0.61 0.01zm-5.74 -3.71c-1.4,2.07 -4.17,2.72 -6.35,1.45 -2.3,-1.33 -3.08,-4.29 -1.76,-6.6 1.33,-2.31 4.26,-3.1 6.55,-1.76 1.5,0.87 2.36,2.43 2.4,4.06 1.62,0.91 3.69,3.12 3.96,5.19l-2.84 0.02c-0.65,-1.26 -1.19,-1.86 -1.96,-2.36zm-10.36 4.46c2.48,0.19 4.43,2.27 4.43,4.82 0,2.66 -2.15,4.83 -4.8,4.83 -2.64,0 -4.79,-2.17 -4.79,-4.83 0,-1.75 0.92,-3.28 2.29,-4.13 -0.02,-1.86 0.84,-4.77 2.49,-6.05l1.43 2.47c-0.76,1.2 -1,1.97 -1.05,2.89zm8.98 6.86c-1.07,-2.25 -0.26,-4.99 1.93,-6.27 2.29,-1.33 5.22,-0.54 6.55,1.77 1.32,2.31 0.54,5.27 -1.76,6.6 -1.5,0.87 -3.27,0.84 -4.69,0.06 -1.59,0.95 -4.52,1.66 -6.44,0.86l1.4 -2.48c1.41,0.06 2.2,-0.12 3.01,-0.54z"/>
 </g>
</svg>
