<?xml version="1.0" encoding="UTF-8"?>
<!DOCTYPE svg PUBLIC "-//W3C//DTD SVG 1.1//EN" "http://www.w3.org/Graphics/SVG/1.1/DTD/svg11.dtd">
<!-- Creator: CorelDRAW (Версия для OEM) -->
<svg xmlns="http://www.w3.org/2000/svg" xml:space="preserve" width="25px" height="25px" version="1.1" style="shape-rendering:geometricPrecision; text-rendering:geometricPrecision; image-rendering:optimizeQuality; fill-rule:evenodd; clip-rule:evenodd"
viewBox="0 0 4.81 4.81"
 xmlns:xlink="http://www.w3.org/1999/xlink"
 xmlns:xodm="http://www.corel.com/coreldraw/odm/2003">
 <defs>
  <style type="text/css">
   <![CDATA[
    .str0 {stroke:#A7F2A2;stroke-width:0.45;stroke-miterlimit:22.9256}
    .fil1 {fill:none}
    .fil0 {fill:#A7F2A2}
   ]]>
  </style>
 </defs>
 <g id="Слой_x0020_1">
  <metadata id="CorelCorpID_0Corel-Layer"/>
  <g id="_2217923827520">
   <g>
    <path class="fil0" d="M2.4 0c1.33,0 2.41,1.08 2.41,2.4 0,1.33 -1.08,2.41 -2.41,2.41 -1.32,0 -2.4,-1.08 -2.4,-2.41 0,-1.32 1.08,-2.4 2.4,-2.4zm1.38 1.02c-0.35,-0.35 -0.84,-0.57 -1.38,-0.57 -0.54,0 -1.02,0.22 -1.37,0.57l0 0.01c-0.36,0.35 -0.58,0.84 -0.58,1.37 0,0.54 0.22,1.03 0.57,1.38l0.01 0c0.35,0.36 0.84,0.57 1.37,0.57 0.54,0 1.03,-0.21 1.38,-0.57l0 0c0.36,-0.35 0.57,-0.84 0.57,-1.38 0,-0.53 -0.21,-1.02 -0.57,-1.37l0 -0.01z"/>
   </g>
   <polyline class="fil1 str0" points="2.4,1.05 2.4,2.4 3.61,2.4 "/>
  </g>
 </g>
</svg>
