<?xml version="1.0" encoding="UTF-8"?>
<!DOCTYPE svg PUBLIC "-//W3C//DTD SVG 1.1//EN" "http://www.w3.org/Graphics/SVG/1.1/DTD/svg11.dtd">
<!-- Creator: CorelDRAW (Версия для OEM) -->
<svg xmlns="http://www.w3.org/2000/svg" xml:space="preserve" width="26px" height="25px" version="1.1" style="shape-rendering:geometricPrecision; text-rendering:geometricPrecision; image-rendering:optimizeQuality; fill-rule:evenodd; clip-rule:evenodd"
viewBox="0 0 26 25"
 xmlns:xlink="http://www.w3.org/1999/xlink"
 xmlns:xodm="http://www.corel.com/coreldraw/odm/2003">
 <defs>
  <style type="text/css">
   <![CDATA[
    .fil0 {fill:#A7F2A2}
   ]]>
  </style>
 </defs>
 <g id="Слой_x0020_1">
  <metadata id="CorelCorpID_0Corel-Layer"/>
  <path class="fil0" d="M13.69 0.41l3.75 6.6c0.12,0.21 0.3,0.34 0.53,0.39l7.39 1.55c0.29,0.06 0.51,0.26 0.6,0.54 0.09,0.28 0.03,0.57 -0.17,0.79l-5.07 5.63c-0.16,0.18 -0.23,0.39 -0.21,0.63l0.82 7.57c0.04,0.29 -0.08,0.56 -0.32,0.73 -0.24,0.18 -0.53,0.21 -0.8,0.09l-6.88 -3.12c-0.22,-0.1 -0.44,-0.1 -0.66,0l-6.88 3.12c-0.27,0.12 -0.56,0.09 -0.8,-0.09 -0.24,-0.17 -0.36,-0.44 -0.32,-0.73l0.82 -7.57c0.02,-0.24 -0.05,-0.45 -0.21,-0.63l-5.07 -5.63c-0.2,-0.22 -0.26,-0.51 -0.17,-0.79 0.09,-0.28 0.31,-0.48 0.6,-0.54l7.39 -1.55c0.23,-0.05 0.41,-0.18 0.53,-0.39l3.75 -6.6c0.14,-0.26 0.4,-0.41 0.69,-0.41 0.29,0 0.55,0.15 0.69,0.41zm1.7 7.76l-2.39 -4.22 -2.4 4.23c-0.23,0.39 -0.52,0.73 -0.87,0.98l-0.01 0.01c-0.35,0.26 -0.76,0.44 -1.2,0.54l-4.76 0.99 3.28 3.64c0.3,0.35 0.53,0.74 0.66,1.16 0.14,0.42 0.18,0.85 0.13,1.29l-0.53 4.86 4.4 -1.99c0.42,-0.19 0.86,-0.29 1.3,-0.29 0.44,0 0.88,0.1 1.3,0.29l4.4 1.99 -0.53 -4.86c-0.05,-0.45 0,-0.9 0.13,-1.32 0.15,-0.41 0.36,-0.79 0.66,-1.12l3.28 -3.65 -4.75 -1c-0.45,-0.09 -0.86,-0.27 -1.21,-0.53 -0.36,-0.26 -0.66,-0.59 -0.89,-1z"/>
 </g>
</svg>
