<svg width="29" height="24" viewBox="0 0 29 24" fill="none" xmlns="http://www.w3.org/2000/svg">
<path d="M1.73092 10.1558C1.73092 10.1558 14.2179 5.03705 18.5494 3.23341C20.2097 2.51238 25.8396 0.205883 25.8396 0.205883C25.8396 0.205883 28.4372 -0.803572 28.2204 1.64796C28.1485 2.65742 27.5719 6.18905 26.9928 10.012C26.1271 15.4192 25.1898 21.3317 25.1898 21.3317C25.1898 21.3317 25.0446 22.9903 23.817 23.2787C22.5906 23.5663 20.5696 22.2693 20.2097 21.9808C19.9198 21.7652 14.7958 18.5199 12.9195 16.9327C12.4137 16.5005 11.8371 15.6357 12.9903 14.6262C15.5895 12.2466 18.6934 9.29097 20.5696 7.41544C21.4361 6.55103 22.3018 4.5317 18.6934 6.98323C13.5694 10.5161 8.51648 13.8321 8.51648 13.8321C8.51648 13.8321 7.3608 14.5531 5.19671 13.9052C3.03054 13.2561 0.50327 12.3904 0.50327 12.3904C0.50327 12.3904 -1.22775 11.3091 1.73092 10.1558Z" fill="#A7F2A2"/>
</svg>
