<svg width="25" height="29" viewBox="0 0 25 29" fill="none" xmlns="http://www.w3.org/2000/svg">
<path d="M24.0296 11.3492H24.0247C23.7958 11.3716 23.565 11.3837 23.3349 11.3845C20.8064 11.3845 18.448 10.1124 17.0623 7.99792V19.5296C17.0623 24.2369 13.2429 28.0528 8.53198 28.0528C3.8194 28.0528 0 24.2369 0 19.5296C0 14.8222 3.8194 11.0076 8.53198 11.0076C8.71003 11.0076 8.88309 11.023 9.05781 11.0338V15.2332C8.88309 15.2121 8.71086 15.1817 8.53198 15.1817C6.12618 15.1817 4.17675 17.1287 4.17675 19.5308C4.17675 21.9329 6.12618 23.8811 8.53198 23.8811C10.9361 23.8811 13.0603 21.9869 13.0603 19.5848L13.1014 0H17.1251C17.5045 3.60395 20.4116 6.41829 24.0296 6.68218V11.3492Z" fill="#A7F2A2"/>
</svg>
